<?xml version="1.0" encoding="UTF-8" standalone="no"?> <svg id="Line" xmlns="http://www.w3.org/2000/svg" viewBox="0 0 64 64"><defs><style>.cls-1{fill:#231f20;}</style></defs><title>1</title><path class="cls-1" d="M51.82422,44.06348,58.0957,35.6333a9.63263,9.63263,0,0,0,1.70606-7.689L56.37988,11.29346a1.53678,1.53678,0,0,0-2.29-1.03516,6.08571,6.08571,0,0,0-2.94336,5.86719l.61945,5.89758a5.42729,5.42729,0,0,0-4.19366,3.23132l-3.13478,7.34913a1.68313,1.68313,0,0,1-.542.66455,11.61274,11.61274,0,0,0-4.46466,9.69305,2.99823,2.99823,0,0,0-2.86931,1.77668l-1.14162,2.56933a3.01465,3.01465,0,0,0,1.52347,3.96043l9.93845,4.41408a3.0073,3.0073,0,0,0,3.959-1.52442l1.1416-2.57031a2.95371,2.95371,0,0,0-.37177-3.03637l-.263-2.79761A2.46169,2.46169,0,0,1,51.82422,44.06348ZM45.1123,34.855a3.64727,3.64727,0,0,0,1.165-1.4668l3.13477-7.35009a3.42727,3.42727,0,0,1,3.40723-2.08252,3.05038,3.05038,0,0,1,.45605.0581L49.71094,32.4668a1.00065,1.00065,0,0,0,1.84377.77728L55.332,24.2832a1.54377,1.54377,0,0,0-.04785-1.27588,1.86657,1.86657,0,0,0-1.50154-.92263L53.13477,15.915a4.08685,4.08685,0,0,1,1.4248-3.54639l3.2832,15.97852A7.63048,7.63048,0,0,1,56.49121,34.439l-6.27344,8.43262a5.47143,5.47143,0,0,0-.74312,4.31869l-8.0128-3.5588A9.69719,9.69719,0,0,1,45.1123,34.855Zm5.042,15.92041L49.0127,53.3457a1.00108,1.00108,0,0,1-1.31934.50782l-9.93848-4.41407a1.00311,1.00311,0,0,1-.50682-1.31982l1.14159-2.57031a1.00382,1.00382,0,0,1,1.31934-.50781l9.93847,4.41406A1.005,1.005,0,0,1,50.1543,50.77539Z"/><path class="cls-1" d="M27.43848,44.73779a2.99966,2.99966,0,0,0-2.86928-1.777,11.61284,11.61284,0,0,0-4.46471-9.69276,1.68126,1.68126,0,0,1-.542-.665l-3.13476-7.34717a5.42049,5.42049,0,0,0-4.193-3.23883l.61878-5.89008a6.08912,6.08912,0,0,0-2.9502-5.87256,1.54128,1.54128,0,0,0-1.59863.03077,1.52212,1.52212,0,0,0-.68164.99218L4.19824,27.94385A9.63659,9.63659,0,0,0,5.90332,35.6333L12.1748,44.061a2.46856,2.46856,0,0,1,.47852,1.688l-.264,2.80152a2.95384,2.95384,0,0,0-.37175,3.03637l1.14159,2.57032a3.008,3.008,0,0,0,3.96,1.5244l9.93652-4.414A3.0132,3.0132,0,0,0,28.58,47.30809ZM7.50781,34.439a7.63443,7.63443,0,0,1-1.35058-6.09228l3.2832-15.977a4.08829,4.08829,0,0,1,1.4248,3.54687l-.64782,6.16809A1.63566,1.63566,0,0,0,8.6719,24.294l3.77341,8.95015a1.00065,1.00065,0,0,0,1.84372-.7774l-3.56442-8.45307a3.44669,3.44669,0,0,1,3.86327,2.0259l3.13478,7.34813a3.64541,3.64541,0,0,0,1.165,1.46728,9.697,9.697,0,0,1,3.65045,8.77612l-8.01239,3.55933a5.47034,5.47034,0,0,0-.74461-4.32129ZM26.77246,48.88477a.99343.99343,0,0,1-.52832.55468l-9.93652,4.41407a1.00091,1.00091,0,0,1-1.32032-.50782l-1.1416-2.57031a1.0042,1.0042,0,0,1,.50783-1.31982L24.29,45.0415a1.00441,1.00441,0,0,1,1.32031.50783l1.1416,2.57128A.988.988,0,0,1,26.77246,48.88477Z"/><path class="cls-1" d="M43.78711,22.86865C50.91275,14.87678,40.61979,3.54353,32.0067,9.84338a8.82044,8.82044,0,0,0-11.80357,13.015c.081.08887.16894.17822.24707.25537l8.58105,8.58105a4.21867,4.21867,0,0,0,5.93847,0l8.59766-8.59712C43.6416,23.02246,43.72266,22.94043,43.78711,22.86865Zm-1.65039-1.16894-8.58106,8.58105a2.25181,2.25181,0,0,1-3.11035,0l-8.584-8.58349c-.05567-.05616-.11817-.11719-.1836-.18995-4.07221-4.19161-.80209-11.56609,5.007-11.44718a6.798,6.798,0,0,1,4.64239,1.82072.99943.99943,0,0,0,1.3623-.00049C39.33137,6.02253,48.22406,15.28386,42.13672,21.69971Z"/></svg>