<?xml version="1.0" encoding="UTF-8"?>
<!DOCTYPE svg PUBLIC "-//W3C//DTD SVG 1.1//EN" "http://www.w3.org/Graphics/SVG/1.1/DTD/svg11.dtd">
<!-- Creator: CorelDRAW -->
<svg xmlns="http://www.w3.org/2000/svg" xml:space="preserve" width="512px" height="512px" version="1.1" style="shape-rendering:geometricPrecision; text-rendering:geometricPrecision; image-rendering:optimizeQuality; fill-rule:evenodd; clip-rule:evenodd"
viewBox="0 0 512 512"
 xmlns:xlink="http://www.w3.org/1999/xlink">
 <defs>
  <style type="text/css">
   <![CDATA[
    .fil0 {fill:black}
   ]]>
  </style>
 </defs>
 <g id="Layer_x0020_1">
  <metadata id="CorelCorpID_0Corel-Layer"/>
  <g id="_460279544">
   <g>
    <g>
     <path class="fil0" d="M418 512l-381 0c-4,0 -7,-3 -7,-7l0 -449c0,-4 3,-7 7,-7l288 0c4,0 7,3 7,7 0,4 -3,7 -7,7l-281 0 0 435 367 0 0 -338c0,-4 3,-7 7,-7 4,0 7,3 7,7l0 345c0,4 -3,7 -7,7z"/>
    </g>
    <g>
     <path class="fil0" d="M388 483l-321 0c-4,0 -7,-3 -7,-7l0 -391c0,-4 3,-7 7,-7l252 0c4,0 7,3 7,7 0,4 -3,7 -7,7l-245 0 0 377 307 0 0 -307c0,-4 3,-7 7,-7 4,0 7,3 7,7l0 314c0,4 -3,7 -7,7z"/>
    </g>
    <g>
     <path class="fil0" d="M287 63c-4,0 -7,-3 -7,-7l0 -42 -105 0 0 42c0,4 -3,7 -7,7 -4,0 -7,-3 -7,-7l0 -49c0,-4 3,-7 7,-7l119 0c4,0 7,3 7,7l0 49c0,4 -3,7 -7,7z"/>
    </g>
    <g>
     <g>
      <path class="fil0" d="M299 142l-143 0c-4,0 -7,-3 -7,-7 0,-4 3,-7 7,-7l143 0c4,0 7,3 7,7 0,4 -3,7 -7,7z"/>
     </g>
     <g>
      <g>
       <path class="fil0" d="M146 188l-43 0c-4,0 -7,-3 -7,-7 0,-4 3,-7 7,-7l43 0c4,0 7,3 7,7 0,4 -3,7 -7,7z"/>
      </g>
      <g>
       <path class="fil0" d="M352 188l-165 0c-4,0 -7,-3 -7,-7 0,-4 3,-7 7,-7l165 0c4,0 7,3 7,7 0,4 -3,7 -7,7z"/>
      </g>
     </g>
     <g>
      <g>
       <path class="fil0" d="M146 237l-43 0c-4,0 -7,-3 -7,-7 0,-4 3,-7 7,-7l43 0c4,0 7,3 7,7 0,4 -3,7 -7,7z"/>
      </g>
      <g>
       <path class="fil0" d="M352 237l-165 0c-4,0 -7,-3 -7,-7 0,-4 3,-7 7,-7l165 0c4,0 7,3 7,7 0,4 -3,7 -7,7z"/>
      </g>
     </g>
     <g>
      <g>
       <path class="fil0" d="M146 286l-43 0c-4,0 -7,-3 -7,-7 0,-4 3,-7 7,-7l43 0c4,0 7,3 7,7 0,4 -3,7 -7,7z"/>
      </g>
      <g>
       <path class="fil0" d="M352 286l-165 0c-4,0 -7,-3 -7,-7 0,-4 3,-7 7,-7l165 0c4,0 7,3 7,7 0,4 -3,7 -7,7z"/>
      </g>
     </g>
     <g>
      <g>
       <path class="fil0" d="M146 335l-43 0c-4,0 -7,-3 -7,-7 0,-4 3,-7 7,-7l43 0c4,0 7,3 7,7 0,4 -3,7 -7,7z"/>
      </g>
      <g>
       <path class="fil0" d="M352 335l-165 0c-4,0 -7,-3 -7,-7 0,-4 3,-7 7,-7l165 0c4,0 7,3 7,7 0,4 -3,7 -7,7z"/>
      </g>
     </g>
     <g>
      <g>
       <path class="fil0" d="M146 383l-43 0c-4,0 -7,-3 -7,-7 0,-4 3,-7 7,-7l43 0c4,0 7,3 7,7 0,4 -3,7 -7,7z"/>
      </g>
      <g>
       <path class="fil0" d="M352 383l-165 0c-4,0 -7,-3 -7,-7 0,-4 3,-7 7,-7l165 0c4,0 7,3 7,7 0,4 -3,7 -7,7z"/>
      </g>
     </g>
     <g>
      <g>
       <path class="fil0" d="M146 432l-43 0c-4,0 -7,-3 -7,-7 0,-4 3,-7 7,-7l43 0c4,0 7,3 7,7 0,4 -3,7 -7,7z"/>
      </g>
      <g>
       <path class="fil0" d="M352 432l-165 0c-4,0 -7,-3 -7,-7 0,-4 3,-7 7,-7l165 0c4,0 7,3 7,7 0,4 -3,7 -7,7z"/>
      </g>
     </g>
    </g>
    <g>
     <path class="fil0" d="M397 170c-47,0 -85,-38 -85,-85 0,-47 38,-85 85,-85 47,0 85,38 85,85 0,47 -38,85 -85,85zm0 -156c-39,0 -71,32 -71,71 0,39 32,71 71,71 39,0 71,-32 71,-71 0,-39 -32,-71 -71,-71z"/>
    </g>
    <g>
     <path class="fil0" d="M375 125c-2,0 -4,-1 -5,-2l-28 -28c-3,-3 -3,-7 0,-10 3,-3 7,-3 10,0l23 23 60 -61c3,-3 7,-3 10,0 3,3 3,7 0,10l-65 66c-1,1 -3,2 -5,2 0,0 0,0 0,0z"/>
    </g>
   </g>
  </g>
 </g>
</svg>
