<svg xmlns="http://www.w3.org/2000/svg" xmlns:xlink="http://www.w3.org/1999/xlink" version="1.1" width="256" height="256" viewBox="0 0 256 256" xml:space="preserve">

<defs>
</defs>
<g style="stroke: none; stroke-width: 0; stroke-dasharray: none; stroke-linecap: butt; stroke-linejoin: miter; stroke-miterlimit: 10; fill: none; fill-rule: nonzero; opacity: 1;" transform="translate(1.4065934065934016 1.4065934065934016) scale(2.81 2.81)" >
	<path d="M 15.514 25.392 c -0.12 0 -0.239 -0.03 -0.347 -0.09 c -1.495 -0.834 -3.611 -2.446 -5.391 -4.106 c -0.287 -0.268 -0.303 -0.719 -0.035 -1.006 c 0.268 -0.287 0.719 -0.303 1.006 -0.035 c 1.542 1.439 3.404 2.881 4.767 3.703 c 2.15 -1.294 5.319 -3.989 6.626 -5.662 c 0.242 -0.31 0.689 -0.364 0.999 -0.123 c 0.31 0.242 0.365 0.69 0.123 0.999 c -1.496 1.914 -5.092 4.942 -7.401 6.23 C 15.753 25.362 15.633 25.392 15.514 25.392 z" style="stroke: none; stroke-width: 1; stroke-dasharray: none; stroke-linecap: butt; stroke-linejoin: miter; stroke-miterlimit: 10; fill: rgb(0,0,0); fill-rule: nonzero; opacity: 1;" transform=" matrix(2.81 0 0 2.81 1.4065934065934016 1.4065934065934016) " stroke-linecap="round" />
	<path d="M 6.058 15.161 c -0.3 0 -0.579 -0.191 -0.677 -0.492 C 4.462 11.843 4.767 9.281 6.22 7.64 c 1.09 -1.232 2.621 -1.942 4.31 -2.001 c 1.753 -0.061 3.498 0.594 4.984 1.855 c 1.485 -1.261 3.233 -1.916 4.984 -1.855 c 1.689 0.058 3.22 0.769 4.31 2.001 c 1.129 1.276 1.569 3.065 1.274 5.173 c -0.055 0.389 -0.414 0.661 -0.804 0.606 c -0.389 -0.055 -0.66 -0.414 -0.606 -0.804 c 0.165 -1.174 0.137 -2.826 -0.93 -4.032 c -0.829 -0.936 -1.999 -1.477 -3.294 -1.522 c -1.546 -0.051 -3.132 0.622 -4.435 1.904 c -0.277 0.272 -0.721 0.272 -0.998 0 c -1.303 -1.282 -2.875 -1.955 -4.435 -1.904 C 9.284 7.107 8.115 7.647 7.286 8.584 c -1.109 1.253 -1.31 3.311 -0.551 5.645 c 0.122 0.374 -0.083 0.776 -0.457 0.897 C 6.205 15.15 6.131 15.161 6.058 15.161 z" style="stroke: none; stroke-width: 1; stroke-dasharray: none; stroke-linecap: butt; stroke-linejoin: miter; stroke-miterlimit: 10; fill: rgb(0,0,0); fill-rule: nonzero; opacity: 1;" transform=" matrix(2.81 0 0 2.81 1.4065934065934016 1.4065934065934016) " stroke-linecap="round" />
	<path d="M 19.833 64.132 c -0.007 0 -0.015 0 -0.022 0 c -0.838 -0.01 -1.582 -0.541 -1.862 -1.331 l -5.028 -14.169 H 2 c -1.104 0 -2 -0.896 -2 -2 s 0.896 -2 2 -2 h 12.333 c 0.847 0 1.602 0.533 1.885 1.331 l 3.68 10.371 L 30.13 29.421 c 0.299 -0.787 1.064 -1.304 1.9 -1.289 c 0.842 0.013 1.585 0.552 1.86 1.347 l 6.308 18.267 l 1.026 -2.4 c 0.314 -0.736 1.038 -1.214 1.839 -1.214 H 88 c 1.104 0 2 0.896 2 2 s -0.896 2 -2 2 H 44.383 l -2.544 5.953 c -0.325 0.761 -1.096 1.24 -1.91 1.213 c -0.826 -0.03 -1.549 -0.564 -1.819 -1.347 l -6.2 -17.954 L 21.703 62.843 C 21.408 63.619 20.663 64.132 19.833 64.132 z" style="stroke: none; stroke-width: 1; stroke-dasharray: none; stroke-linecap: butt; stroke-linejoin: miter; stroke-miterlimit: 10; fill: rgb(0,0,0); fill-rule: nonzero; opacity: 1;" transform=" matrix(1 0 0 1 0 0) " stroke-linecap="round" />
</g>
</svg>