<?xml version="1.0" encoding="UTF-8" standalone="no"?> <svg xmlns="http://www.w3.org/2000/svg" viewBox="0 0 64 64"><title>insurance</title><g id="_11-insurance" data-name="11-insurance"><path d="M22,44a1,1,0,0,1-.43-.1l-6.554-3.121A26.466,26.466,0,0,1,0,17V7A1,1,0,0,1,1,6,38.723,38.723,0,0,0,20.918.483a2.1,2.1,0,0,1,2.164,0A38.723,38.723,0,0,0,43,6a1,1,0,0,1,1,1V17A26.466,26.466,0,0,1,28.984,40.782L22.43,43.9A1,1,0,0,1,22,44ZM2,7.988V17A24.457,24.457,0,0,0,15.875,38.976L22,41.893l6.125-2.917A24.457,24.457,0,0,0,42,17V7.988A40.724,40.724,0,0,1,22.053,2.2a.1.1,0,0,0-.106,0A40.724,40.724,0,0,1,2,7.988Z"/><path d="M26,35H18a1,1,0,0,1-1-1V27H10a1,1,0,0,1-1-1V18a1,1,0,0,1,1-1h7V10a1,1,0,0,1,1-1h8a1,1,0,0,1,1,1v7h7a1,1,0,0,1,1,1v8a1,1,0,0,1-1,1H27v7A1,1,0,0,1,26,35Zm-7-2h6V26a1,1,0,0,1,1-1h7V19H26a1,1,0,0,1-1-1V11H19v7a1,1,0,0,1-1,1H11v6h7a1,1,0,0,1,1,1Z"/><path d="M42,64a1,1,0,0,1-.43-.1l-6.554-3.121a26.227,26.227,0,0,1-13.3-14.427l1.869-.71a24.24,24.24,0,0,0,12.29,13.331L42,61.893l6.124-2.917A24.456,24.456,0,0,0,62,37V27.987a40.993,40.993,0,0,1-16.428-3.906l.856-1.808A38.956,38.956,0,0,0,63,26a1,1,0,0,1,1,1V37A26.466,26.466,0,0,1,48.984,60.782L42.43,63.9A1,1,0,0,1,42,64Z"/><path d="M46,55H38a1,1,0,0,1-1-1V47H30a1,1,0,0,1-1-1V42h2v3h7a1,1,0,0,1,1,1v7h6V46a1,1,0,0,1,1-1h7V39H46a1,1,0,0,1-1-1V31H42V29h4a1,1,0,0,1,1,1v7h7a1,1,0,0,1,1,1v8a1,1,0,0,1-1,1H47v7A1,1,0,0,1,46,55Z"/><path d="M38,39H35V37h2V35h2v3A1,1,0,0,1,38,39Z"/></g></svg>